<?xml version="1.0" encoding="iso-8859-1"?>
<!-- Generator: Adobe Illustrator 19.0.0, SVG Export Plug-In . SVG Version: 6.00 Build 0)  -->
<svg version="1.1" id="Layer_1" xmlns="http://www.w3.org/2000/svg" xmlns:xlink="http://www.w3.org/1999/xlink" x="0px" y="0px"
	 viewBox="0 0 511.997 511.997" style="enable-background:new 0 0 511.997 511.997;" xml:space="preserve">
<g>
	<g>
		<path d="M274.894,260.219c-3.513-3.461-9.167-3.417-12.63,0.098c-1.673,1.699-3.91,2.646-6.295,2.664
			c-2.385,0.018-4.636-0.894-6.334-2.568c-3.514-3.461-9.17-3.418-12.63,0.095c-3.462,3.514-3.419,9.17,0.095,12.631
			c5.099,5.022,11.849,7.758,19.006,7.704s13.864-2.894,18.886-7.993C278.453,269.337,278.41,263.681,274.894,260.219z"/>
	</g>
</g>
<g>
	<g>
		<path d="M503.06,226.885c-0.549-15.36-6.793-29.966-17.579-41.127c-8.574-8.872-19.422-14.932-31.205-17.584v-3.716
			c0-14.403-2.754-28.066-8.188-40.615c-9.741-22.43-26.84-38.703-49.824-47.588c2.096-4.763,3.617-10.787,2.812-17.579
			c-1.315-11.092-8.361-20.785-20.944-28.808c-70.739-45.112-164.067-32.033-222.498-7.124
			C78.647,55.57,68.636,125.537,67.403,146.199c-0.294,4.924,3.458,9.154,8.382,9.448c4.941,0.275,9.154-3.459,9.448-8.384
			c1.08-18.074,9.853-79.285,77.408-108.092c54.432-23.205,141.011-35.621,205.886,5.754c7.797,4.972,12.102,10.268,12.797,15.742
			c0.968,7.627-5.185,14.326-5.198,14.34c-2.202,2.283-3.027,5.561-2.17,8.615c0.857,3.053,3.27,5.423,6.338,6.226
			c23.624,6.182,40.247,20.012,49.405,41.099c4.455,10.287,6.714,21.56,6.714,33.508v2.338c-8.178,0.55-16.181,2.698-23.537,6.34
			c-0.469,0.193-0.921,0.413-1.34,0.676c-4.101,2.154-7.912,4.723-11.4,7.683c-0.96-0.661-1.983-1.241-3.062-1.732
			c-5.372-2.44-11.506-2.384-16.833,0.149c-38.791,18.459-80.392,27.82-123.647,27.82c-43.462,0-85.239-9.443-124.174-28.069
			c-5.454-2.609-11.74-2.676-17.246-0.181c-1.209,0.548-2.348,1.205-3.407,1.96c-0.064-0.055-0.132-0.105-0.196-0.158
			c-0.387-0.324-0.774-0.648-1.167-0.962c-0.223-0.179-0.448-0.356-0.678-0.536l-0.062-0.046c-0.032-0.025-0.066-0.048-0.098-0.073
			c-0.091-0.069-0.183-0.136-0.274-0.205c-0.482-0.368-0.966-0.734-1.455-1.085c-0.161-0.115-0.322-0.231-0.482-0.344
			c-0.033-0.024-0.082-0.057-0.126-0.088c-0.012-0.008-0.019-0.013-0.03-0.02c-0.001-0.001-0.004-0.002-0.005-0.004l-0.02-0.01
			c-0.008-0.006-0.021-0.014-0.027-0.019c-0.001-0.001-0.004-0.002-0.005-0.004l-0.363-0.248c-0.013-0.008-0.025-0.018-0.038-0.026
			c-0.004-0.002-0.007-0.005-0.011-0.007c-0.622-0.426-1.243-0.846-1.829-1.217c-0.014-0.01-0.031-0.019-0.046-0.029
			c-0.002-0.001-0.005-0.002-0.006-0.005c-0.001-0.001-0.002-0.001-0.004-0.002c-0.029-0.019-0.057-0.037-0.088-0.056
			c-0.768-0.485-1.539-0.945-2.31-1.388c-0.232-0.133-0.462-0.256-0.694-0.385c-0.406-0.226-0.812-0.461-1.217-0.675
			c-0.453-0.288-0.944-0.524-1.455-0.73c-6.913-3.419-14.345-5.512-22.112-6.202c-0.031-0.002-0.062-0.001-0.093-0.004
			c-0.033-0.002-0.065-0.01-0.099-0.012c-5.842-0.391-9.453-0.129-9.752-0.105c-15.331,1.057-29.718,7.791-40.509,18.957
			c-10.788,11.162-17.03,25.768-17.579,41.127c-0.613,17.145,5.596,33.371,17.485,45.692c8.638,8.953,19.44,14.967,31.264,17.596
			c-0.732,1.346-1.135,2.893-1.084,4.534c1.722,55.561,31.218,105.903,78.898,134.665c0.723,0.436,1.484,0.757,2.259,0.971
			c-6.044,14.621-9.405,30.335-9.722,46.299c-0.099,4.932,3.82,9.009,8.752,9.108c0.061,0.001,0.121,0.001,0.181,0.001
			c4.849,0,8.829-3.883,8.925-8.754c0.5-25.078,9.675-49.46,25.835-68.653c3.233-3.839,6.81-7.533,10.635-10.976
			c0.341-0.307,0.642-0.639,0.924-0.982c5.358,1.236,10.759,2.323,16.144,3.274v9.367c0,6.489,2.668,12.502,7.171,16.796
			c-3.926,7.812-2.647,17.593,3.865,24.104l36.497,36.497v16.645c0,4.933,3.998,8.931,8.931,8.931s8.931-3.999,8.931-8.931v-16.445
			l36.698-36.698c6.513-6.512,7.791-16.292,3.866-24.104c4.504-4.294,7.171-10.307,7.171-16.796v-9.329
			c5.124-0.903,10.59-1.985,16.237-3.281c0.275,0.332,0.569,0.655,0.899,0.952c3.374,3.038,6.578,6.3,9.527,9.696
			c16.452,18.944,25.998,43.183,26.879,68.25c0.17,4.823,4.132,8.617,8.92,8.617c0.106,0,0.213-0.001,0.32-0.006
			c4.93-0.174,8.785-4.31,8.611-9.24c-0.557-15.841-4.112-31.386-10.293-45.823c0.06,0.001,0.119,0.011,0.18,0.011
			c1.615,0,3.25-0.438,4.722-1.356c47.235-29.487,75.958-80.272,76.834-135.853c0.01-0.584-0.042-1.154-0.141-1.708
			c11.454-2.737,21.908-8.666,30.317-17.379C497.465,260.256,503.674,244.03,503.06,226.885z M158.064,396.838
			c-4.697,5.578-8.886,11.535-12.537,17.785c-0.255-0.194-0.522-0.379-0.801-0.548c-42.467-25.617-68.736-70.448-70.271-119.923
			c-0.027-0.887-0.187-1.737-0.451-2.538c3.988-0.162,7.919-0.678,11.763-1.585c1.624,10.246,3.513,19.777,5.639,28.442v0.001
			c5.527,22.53,12.129,37.269,20.184,45.059c12.331,11.929,30.993,20.945,51.734,27.459
			C161.503,392.901,159.738,394.848,158.064,396.838z M217.295,409.024v-6.69c0.243,0.03,0.485,0.054,0.728,0.082
			c1.822,0.22,3.635,0.426,5.432,0.615c0.405,0.043,0.809,0.08,1.212,0.121c1.672,0.169,3.331,0.325,4.975,0.468
			c0.235,0.02,0.472,0.046,0.706,0.067c0.391,1.29,0.878,2.547,1.46,3.762l-5.366,5.366c-2.286,2.286-4.843,1.574-5.839,1.162
			C219.607,413.565,217.295,412.255,217.295,409.024z M246.966,461.16L223.1,437.294c-1.162-1.161-1.162-3.05,0-4.211
			c0.28-0.28,0.529-0.578,0.763-0.884c5.614-0.289,11.05-2.595,15.211-6.755l5.389-5.389c0.817,0.391,1.651,0.737,2.503,1.042
			V461.16z M288.895,437.293l-24.066,24.066v-40.191c0.922-0.321,1.822-0.693,2.703-1.113l5.389,5.389
			c4.13,4.13,9.515,6.432,15.085,6.749l0.89,0.89C290.057,434.243,290.057,436.132,288.895,437.293z M294.702,409.024h-0.001
			c0,3.232-2.313,4.54-3.308,4.952c-0.994,0.413-3.552,1.124-5.839-1.162l-5.366-5.366c0.574-1.2,1.059-2.444,1.447-3.719
			c0.519-0.043,1.041-0.099,1.561-0.144c0.119-0.006,0.238-0.005,0.358-0.016c1.281-0.113,2.768-0.255,4.429-0.427
			c0.161-0.017,0.323-0.035,0.483-0.051c1.379-0.145,2.869-0.311,4.469-0.501c0.589-0.069,1.178-0.126,1.766-0.198V409.024z
			 M369.107,412.363c-1.029,0.642-1.878,1.46-2.541,2.39c-3.994-6.855-8.609-13.367-13.851-19.404
			c-1.269-1.462-2.592-2.894-3.938-4.307c19.317-6.045,38.514-14.82,51.63-27.509c13.521-13.077,21.383-45.294,25.828-73.502
			c3.695,0.872,7.469,1.387,11.297,1.571C436.68,341.008,411.114,386.14,369.107,412.363z M472.721,260.173
			c-8.496,8.804-19.91,13.653-32.14,13.653c-4.058,0-8.035-0.547-11.886-1.614c1.867-15.688,2.955-31.365,2.955-43.044
			c0-4.925,4.006-8.931,8.931-8.931c4.925,0,8.931,4.006,8.931,8.931c0,4.933,3.998,8.931,8.931,8.931
			c4.934,0,8.931-3.999,8.931-8.931c0-14.775-12.021-26.794-26.794-26.794c-14.774,0-26.794,12.019-26.794,26.794
			c0,12.711-1.384,30.592-3.701,47.83V277c-4.99,37.099-13.458,65.338-22.099,73.694c-17.895,17.31-53.58,27.787-86.428,32.73
			c-2.039,0.306-4.081,0.597-6.126,0.865c-0.308,0.04-0.614,0.079-0.922,0.118c-2.189,0.28-4.378,0.542-6.565,0.776
			c-0.138,0.016-0.275,0.029-0.413,0.044c-4.767,0.506-9.524,0.906-14.24,1.193c-4.822,0.293-8.536,4.367-8.385,9.195
			c0.005,0.144,0.012,0.287,0.023,0.447c-0.044,2.321-0.968,4.495-2.613,6.141c-0.001,0.001-0.002,0.002-0.004,0.004
			c-1.685,1.686-3.927,2.615-6.314,2.615s-4.629-0.929-6.314-2.615c-0.001-0.001-0.002-0.002-0.004-0.004
			c-1.645-1.646-2.569-3.82-2.613-6.14c0.011-0.146,0.019-0.292,0.024-0.439c0.173-4.837-3.539-8.931-8.369-9.232
			c-2.226-0.139-4.463-0.308-6.705-0.495c-0.406-0.035-0.816-0.07-1.225-0.107c-1.847-0.162-3.696-0.342-5.548-0.537
			c-0.853-0.091-1.712-0.187-2.573-0.285c-1.054-0.119-2.107-0.248-3.159-0.376c-1.683-0.208-3.374-0.426-5.081-0.663
			c-0.261-0.036-0.522-0.074-0.782-0.111c-33.624-4.759-71.194-15.283-89.637-33.121c-3.088-2.987-9.176-11.697-15.254-36.475
			c0-0.001,0-0.001,0-0.002c-2.657-10.83-5.023-23.698-6.843-37.216v-0.001c-2.317-17.238-3.701-35.118-3.701-47.83
			c0-14.775-12.021-26.794-26.794-26.794c-14.774,0-26.794,12.019-26.794,26.794c0,4.932,3.998,8.931,8.931,8.931
			s8.931-3.999,8.931-8.931c0-4.925,4.006-8.931,8.931-8.931c4.925,0,8.931,4.006,8.931,8.931c0,11.679,1.087,27.355,2.955,43.044
			c-3.851,1.067-7.828,1.614-11.886,1.614c-12.231,0-23.645-4.849-32.14-13.653c-8.491-8.8-12.926-20.395-12.487-32.65
			c0.805-22.508,19.019-41.354,41.53-42.907c0.025-0.002,2.702-0.187,7.148,0.105c5.678,0.513,11.098,2.063,16.113,4.606
			c0.027,0.014,0.05,0.033,0.076,0.048c1.049,0.535,2.12,1.144,3.174,1.796c0.118,0.073,0.235,0.138,0.351,0.212l0.123,0.075
			l0.002,0.001c0.325,0.207,0.642,0.424,0.96,0.639c0.142,0.096,0.279,0.183,0.423,0.283l0.132,0.089l0.199,0.136
			c0.804,0.563,1.595,1.16,2.367,1.782c0.041,0.032,0.079,0.065,0.119,0.098c0.737,0.598,1.454,1.218,2.146,1.855
			c0.038,0.035,0.077,0.068,0.116,0.102c0.002,0.002,0.005,0.004,0.007,0.006l0.217,0.204c0.395,0.372,0.785,0.747,1.166,1.133
			c0.002,0.002,0.005,0.004,0.006,0.006l0.294,0.306c0.011,0.01,0.021,0.02,0.03,0.031c0.418,0.43,0.826,0.867,1.227,1.315
			c0.011,0.013,0.057,0.065,0.1,0.114c0.017,0.02,0.031,0.037,0.036,0.042c0.018,0.02,0.031,0.036,0.037,0.043
			c0.004,0.005,0.008,0.008,0.013,0.013l0.255,0.288c0.21,0.235,0.42,0.468,0.62,0.71c2.144,2.57,5.541,3.726,8.812,2.995
			c3.267-0.732,5.849-3.23,6.69-6.47l-0.008,0.036c0.235-0.835,0.82-1.254,1.272-1.459c0.406-0.182,1.225-0.424,2.165,0.025
			c19.017,9.097,38.677,16.105,58.847,21.052c-3.07,3.208-4.966,7.548-4.966,12.339c0,9.865,7.998,17.863,17.863,17.863
			c9.865,0,17.863-7.998,17.863-17.863c0-2.347-0.464-4.581-1.287-6.634c14.314,2.03,28.847,3.062,43.563,3.062
			c14.283,0,28.396-0.965,42.305-2.88c-0.778,2.003-1.221,4.174-1.221,6.452c0,9.865,7.998,17.863,17.863,17.863
			s17.863-7.998,17.863-17.863c0-4.677-1.811-8.921-4.754-12.105c20.314-4.91,40.114-11.907,59.265-21.021
			c0.767-0.364,1.439-0.166,1.768-0.016c0.37,0.168,0.85,0.511,1.023,1.125l0.035,0.127c0.875,3.213,3.467,5.672,6.722,6.378
			c3.257,0.71,6.631-0.457,8.761-3.016c3.908-4.699,8.659-8.493,14.116-11.275c0.01-0.005,0.018-0.011,0.026-0.015h0.001
			c7.182-3.655,15.272-5.289,23.361-4.732h0.004c0.002,0,0.005,0.001,0.007,0.001c0.025,0.001,0.05,0.005,0.075,0.007l0.76,0.073
			c0.01,0.001,0.019,0,0.029,0.001c22.049,1.967,39.809,20.603,40.604,42.821C485.646,239.778,481.212,251.374,472.721,260.173z"/>
	</g>
</g>
<g>
	<g>
		<path d="M342.565,431.614c0.001-3.829-2.479-7.369-6.332-8.543c-4.713-1.437-9.708,1.224-11.145,5.942
			c-4.359,14.315-6.57,29.214-6.57,44.282c0,7.034,0.498,14.163,1.478,21.184c0.623,4.466,4.449,7.698,8.834,7.698
			c0.412,0,0.828-0.029,1.247-0.087c4.466-0.623,7.697-4.448,7.698-8.831c0-0.412-0.027-0.829-0.087-1.249
			c-0.867-6.207-1.306-12.503-1.306-18.714c0-13.303,1.949-26.45,5.795-39.078C342.44,433.351,342.565,432.476,342.565,431.614z"/>
	</g>
</g>
<g>
	<g>
		<path d="M186.908,429.014c-1.436-4.719-6.423-7.382-11.145-5.944c-3.851,1.173-6.333,4.713-6.332,8.542
			c0,0.861,0.125,1.736,0.389,2.603c3.845,12.631,5.795,25.78,5.795,39.079c0,6.206-0.439,12.502-1.308,18.714
			c-0.06,0.42-0.087,0.837-0.087,1.249c0.001,4.384,3.232,8.209,7.698,8.831c0.419,0.058,0.835,0.087,1.247,0.087
			c4.385,0,8.211-3.231,8.834-7.698c0.981-7.027,1.479-14.156,1.479-21.184C193.478,458.232,191.267,443.333,186.908,429.014z"/>
	</g>
</g>
<g>
</g>
<g>
</g>
<g>
</g>
<g>
</g>
<g>
</g>
<g>
</g>
<g>
</g>
<g>
</g>
<g>
</g>
<g>
</g>
<g>
</g>
<g>
</g>
<g>
</g>
<g>
</g>
<g>
</g>
</svg>
